<svg version="1.1" id="Layer_1" xmlns="http://www.w3.org/2000/svg" xmlns:xlink="http://www.w3.org/1999/xlink" x="0px" y="0px"
	 width="100%" viewBox="0 0 100 220" enable-background="new 0 0 100 220" xml:space="preserve">
<path fill="#020202" opacity="1.000000" stroke="none" 
	d="
M1.000000,59.000000 
	C1.000000,41.312439 1.000000,23.624876 1.244762,5.129317 
	C2.385936,5.023993 3.401399,5.617453 4.161065,6.445569 
	C17.549635,21.040512 30.886728,35.682678 44.276001,50.276974 
	C63.166389,70.867470 82.090378,91.427147 101.000000,112.000000 
	C101.000000,112.000000 101.000000,112.500000 100.724640,112.937531 
	C67.632858,149.250046 34.816429,185.125031 2.000000,221.000000 
	C1.666664,219.845154 1.047272,218.691376 1.042982,217.535309 
	C0.980392,200.669495 1.000000,183.803360 1.346875,166.498291 
	C18.033993,148.241791 34.374237,130.424316 50.761772,112.555275 
	C39.272106,99.987305 28.219919,87.807816 17.058832,75.728935 
	C11.813956,70.052765 6.359488,64.570267 1.000000,59.000000 
z"/>
<path fill="#FEFEFE" opacity="1.000000" stroke="none" 
	d="
M101.000000,111.531342 
	C82.090378,91.427147 63.166389,70.867470 44.276001,50.276974 
	C30.886728,35.682678 17.549635,21.040512 4.161065,6.445569 
	C3.401399,5.617453 2.385936,5.023993 1.244762,4.660660 
	C1.000000,3.669385 1.000000,2.338770 1.000000,1.006116 
	C34.262653,1.004078 67.525307,1.004078 101.000000,1.004078 
	C101.000000,37.687290 101.000000,74.374985 101.000000,111.531342 
z"/>
<path fill="#FEFEFE" opacity="1.000000" stroke="none" 
	d="
M2.468659,221.000000 
	C34.816429,185.125031 67.632858,149.250046 100.724640,113.187531 
	C101.000000,148.923767 101.000000,184.847519 101.000000,221.000000 
	C68.312798,221.000000 35.625053,221.000000 2.468659,221.000000 
z"/>
<path fill="#FDFDFD" opacity="1.000000" stroke="none" 
	d="
M1.000000,59.468658 
	C6.359488,64.570267 11.813956,70.052765 17.058832,75.728935 
	C28.219919,87.807816 39.272106,99.987305 50.761772,112.555275 
	C34.374237,130.424316 18.033993,148.241791 1.346875,166.029633 
	C1.000000,130.645767 1.000000,95.291542 1.000000,59.468658 
z"/>
</svg>